<svg width="32" height="32" viewBox="0 0 32 32" fill="none" xmlns="http://www.w3.org/2000/svg">
<rect width="32" height="32" rx="2" fill="#F0F7FB"/>
<path d="M12.3977 11.7727H13.4545V18.0114C13.4545 18.5682 13.3523 19.0412 13.1477 19.4304C12.9432 19.8196 12.6548 20.1151 12.2827 20.3168C11.9105 20.5185 11.4716 20.6193 10.9659 20.6193C10.4886 20.6193 10.0639 20.5327 9.69176 20.3594C9.3196 20.1832 9.02699 19.9332 8.81392 19.6094C8.60085 19.2855 8.49432 18.9006 8.49432 18.4545H9.53409C9.53409 18.7017 9.59517 18.9176 9.71733 19.1023C9.84233 19.2841 10.0128 19.4261 10.2287 19.5284C10.4446 19.6307 10.6903 19.6818 10.9659 19.6818C11.2699 19.6818 11.5284 19.6179 11.7415 19.4901C11.9545 19.3622 12.1165 19.1747 12.2273 18.9276C12.3409 18.6776 12.3977 18.3722 12.3977 18.0114V11.7727ZM18.2656 20.5H15.5724V11.7727H18.3849C19.2315 11.7727 19.956 11.9474 20.5582 12.2969C21.1605 12.6435 21.6222 13.142 21.9432 13.7926C22.2642 14.4403 22.4247 15.2159 22.4247 16.1193C22.4247 17.0284 22.2628 17.8111 21.9389 18.4673C21.6151 19.1207 21.1435 19.6236 20.5241 19.9759C19.9048 20.3253 19.152 20.5 18.2656 20.5ZM16.6293 19.5625H18.1974C18.919 19.5625 19.517 19.4233 19.9915 19.1449C20.4659 18.8665 20.8196 18.4702 21.0526 17.956C21.2855 17.4418 21.402 16.8295 21.402 16.1193C21.402 15.4148 21.2869 14.8082 21.0568 14.2997C20.8267 13.7884 20.483 13.3963 20.0256 13.1236C19.5682 12.848 18.9986 12.7102 18.3168 12.7102H16.6293V19.5625Z" fill="#30B0C7"/>
</svg>
